<svg width="91" height="44" viewBox="0 0 91 44" fill="none" xmlns="http://www.w3.org/2000/svg">
<path d="M29.274 43.32C27.2794 43.32 26.0019 41.7878 26.0019 39.5056C26.0019 37.2067 27.2794 35.6922 29.274 35.6922C31.2842 35.6922 32.5617 37.2233 32.5617 39.5056C32.5617 41.7878 31.2842 43.32 29.274 43.32ZM29.274 35.01C26.7691 35.01 25.1503 36.8311 25.1503 39.5056C25.1503 42.1622 26.7691 44 29.2563 44C31.7612 44 33.3978 42.1622 33.3978 39.5056C33.3978 36.8311 31.7612 35.01 29.274 35.01ZM22.731 32.6267L25.2348 32.4378V31.91H19.3054V32.4378L21.8271 32.6089V37.2067H15.1828V32.6089L17.7044 32.4378V31.91H11.774V32.4378L14.2622 32.6267V42.9622L11.774 43.1322V43.6611H17.7044V43.1322L15.1828 42.9622V37.8867H21.8271V42.9622L19.3054 43.1322V43.6611H25.2348V43.1322L22.731 42.9622V32.6267ZM15.165 0.765584H18.9485C20.6174 0.765584 21.6403 1.83779 21.6403 3.44001C21.6403 5.05668 20.7542 6.2833 19.0842 6.2833H15.165V0.765584ZM17.8056 11.3055L15.165 11.1367V6.96445H19.2043C21.3156 6.96445 22.5431 5.46558 22.5431 3.45669C22.5431 1.48114 21.2478 0.0855849 19.1187 0.0855849H11.774V0.612251L14.2444 0.799968V11.1367L11.774 11.3055V11.8344H17.8056V11.3055ZM33.4489 27.2444V27.7389H38.2709V27.2622L36.3274 27.0911V21.8811C37.0257 20.7056 38.2531 19.8378 39.5995 19.8378C40.9448 19.8378 41.6953 20.7055 41.6953 22.0678V27.0911L39.7185 27.2622V27.7389H44.3703V27.2444L42.547 27.0745V21.9833C42.547 20.4333 41.7976 19.1056 39.7696 19.1056C38.3209 19.1056 37.0523 19.9189 36.3108 21.03V19.2078L35.8338 19.0711C35.1345 19.8378 34.215 20.1778 33.1076 20.1778V20.5356C33.9248 20.6889 34.7942 20.6722 35.4758 20.3322V27.0745L33.4489 27.2444ZM15.165 16.6878H19.1353C20.822 16.6878 21.896 17.7089 21.896 19.2755C21.896 20.8422 20.9932 21.9667 19.1698 21.9667H15.165V16.6878ZM17.8056 27.2111L15.165 27.04V22.6645H18.6751L21.1633 27.7389H24.2808V27.2111L21.7426 26.9556L19.629 22.6645C21.6225 22.5622 22.7988 21.1311 22.7988 19.2755C22.7988 17.3689 21.4702 16.0056 19.4244 16.0056H11.774V16.5345L14.2622 16.7222V27.04L11.774 27.2111V27.7389H17.8056V27.2111ZM76.8122 11.17V6.0789C76.8122 4.53001 76.0628 3.18332 74.0348 3.18332C72.6039 3.18332 71.3342 3.99889 70.5938 5.12444V3.28668L70.1168 3.14887C69.4175 3.91554 68.498 4.27333 67.3895 4.25666V4.63108C68.2078 4.78441 69.0772 4.76776 69.7588 4.42776V11.17L67.7308 11.34V11.8344H72.5528V11.3578L70.6105 11.1867V5.97663C71.3087 4.80108 72.5361 3.91554 73.8648 3.91554C75.2112 3.91554 75.9605 4.80108 75.9605 6.16442V11.1867L73.9837 11.3578V11.8344H78.6356V11.34L76.8122 11.17ZM48.7998 39.0456C47.6925 38.7733 46.296 38.3978 46.296 37.19C46.296 36.3889 46.8753 35.6733 48.3407 35.6733C49.6526 35.6733 50.3342 36.2534 50.9479 37.3245L51.4927 38.2789L51.9185 38.1933L51.3737 34.9756H50.9134L50.8956 36.3889C50.4198 35.6233 49.567 35.01 48.2206 35.01C46.5173 35.01 45.4955 35.9633 45.4955 37.2067C45.4955 38.9267 47.4534 39.4545 48.6297 39.7611C50.2319 40.1689 51.3226 40.5611 51.3226 41.7178C51.3226 42.7411 50.4531 43.3533 49.1412 43.3533C47.7781 43.3533 46.9264 42.6733 46.0914 41.31L45.5622 40.4422L45.1208 40.5267L45.6823 43.8467H46.1593L46.1081 42.2467C46.7552 43.32 47.7436 44 49.2435 44C50.9812 44 52.1231 43.0811 52.1231 41.6511C52.1231 39.9989 50.6744 39.5222 48.7998 39.0456ZM76.7788 21.9156C76.7788 20.3656 76.1317 19.1056 74.325 19.1056C72.9441 19.1056 71.8623 19.8356 71.1385 20.9622C70.9039 19.9233 70.2191 19.1056 68.8048 19.1056C67.5607 19.1056 66.3922 19.9022 65.6862 20.9789V19.2078L65.2081 19.0711C64.4932 19.8378 63.5737 20.1778 62.483 20.1778V20.5356C63.2835 20.6889 64.1696 20.6544 64.8512 20.3144V27.0745L62.8233 27.2444V27.7389H67.2705V27.2622L65.7039 27.0911V21.7956C66.351 20.6722 67.4239 19.8378 68.5991 19.8378C69.9633 19.8378 70.4058 20.7578 70.4058 22.1533V27.0911L68.7359 27.2622V27.7389H72.9442V27.2622L71.2586 27.0911V22.0522C71.2586 21.9489 71.2586 21.83 71.2408 21.7111C71.9568 20.5011 72.9442 19.8378 74.1038 19.8378C75.4836 19.8378 75.9272 20.7745 75.9272 22.1367V27.0911L74.3762 27.2622V27.7389H78.6356V27.2622L76.7788 27.0745V21.9156ZM62.1083 11.34V11.8344H66.9637V11.34L64.988 11.17V3.30336L64.511 3.14887C63.7783 3.91554 62.841 4.27333 61.767 4.25666V4.63108C62.5675 4.78441 63.4537 4.74999 64.1363 4.40999V11.17L62.1083 11.34ZM54.27 38.6878C54.5257 36.8656 55.6842 35.6922 57.3542 35.6922C58.734 35.6922 60.1315 36.5933 60.1827 38.6878H54.27ZM57.3709 35.01C54.9682 35.01 53.3839 36.8489 53.3839 39.5056C53.3839 42.1622 54.986 44 57.5254 44C59.381 44 60.454 43.1322 60.8809 41.8211L60.3528 41.6333C59.8725 42.7311 59.0153 43.32 57.6277 43.32C55.4797 43.32 54.22 41.8378 54.22 39.5222V39.3522H60.9832C60.9998 39.2322 60.9999 38.96 60.9999 38.8067C60.9999 36.9333 59.8246 35.01 57.3709 35.01ZM57.9846 27.3978C55.99 27.3978 54.7125 25.8656 54.7125 23.5833C54.7125 21.2845 55.99 19.7867 57.9846 19.7867C59.9959 19.7867 61.2734 21.3022 61.2734 23.5833C61.2734 25.8656 59.9959 27.3978 57.9846 27.3978ZM57.9846 19.1056C55.4797 19.1056 53.8608 20.91 53.8608 23.5833C53.8608 26.24 55.4797 28.0789 57.9679 28.0789C60.4729 28.0789 62.1083 26.24 62.1083 23.5833C62.1083 20.91 60.4728 19.1056 57.9846 19.1056ZM42.7171 35.1133L42.2401 34.9756C41.5085 35.7422 40.5701 36.0989 39.4972 36.0833V36.4567C40.2977 36.61 41.1672 36.5933 41.8487 36.2533V41.31C41.1327 42.4333 39.9064 43.2856 38.5766 43.2856C37.248 43.2856 36.4986 42.4 36.4986 41.0545V35.1133L36.0383 34.9756C35.3223 35.7422 34.5897 36.0989 33.5334 36.0833V36.4567C34.2483 36.61 35.0333 36.5933 35.6459 36.3033V41.1056C35.6459 42.6389 36.3797 44 38.441 44C39.8886 44 41.1372 43.1944 41.8654 42.11L41.8821 43.83L41.9332 43.8633L44.5916 43.6089V43.1489H42.7171V35.1133ZM52.3099 4.47774V9.27999C52.3099 10.8122 53.0437 12.1744 55.105 12.1744C56.5537 12.1744 57.8023 11.3678 58.5294 10.2856L58.5472 12.0044L58.5983 12.0378L61.2556 11.7844V11.3233H59.381V3.28668L58.9052 3.14887C58.1725 3.91554 57.2341 4.27333 56.1601 4.25666V4.63108C56.9617 4.78441 57.8312 4.76776 58.5127 4.42776V9.48554C57.7967 10.6078 56.5693 11.46 55.2406 11.46C53.912 11.46 53.1626 10.5744 53.1626 9.22886V3.28668L52.7023 3.14887C51.9863 3.91554 51.2547 4.27333 50.1974 4.25666V4.63108C50.9134 4.78441 51.6973 4.76774 52.3099 4.47774ZM33.261 4.42776V11.17L31.2331 11.34V11.8344H36.055V11.3578L34.1127 11.1867V5.97663C34.8109 4.80108 36.0384 3.91554 37.3837 3.91554C38.7301 3.91554 39.4806 4.80108 39.4806 6.16442V11.1867L37.5037 11.3578V11.8344H42.1556V11.34L40.3322 11.17V6.0789C40.3322 4.53001 39.5828 3.18332 37.5549 3.18332C36.1062 3.18332 34.8365 3.99889 34.096 5.12444V3.28668L33.619 3.14887C32.9197 3.91554 32.0002 4.27333 30.8929 4.25666V4.63108C31.71 4.78441 32.5795 4.76776 33.261 4.42776ZM51.1858 25.4911C50.76 26.7 49.7037 27.3978 48.3907 27.3978C46.4661 27.3978 45.3243 25.9334 45.3243 23.6178C45.3243 21.3533 46.6029 19.7867 48.5619 19.7867C49.7038 19.7867 50.6922 20.3656 51.1858 21.3189V25.4911ZM48.4596 19.1056C46.0748 19.1056 44.4726 20.9622 44.4726 23.6522C44.4726 26.2911 45.8869 28.0789 48.255 28.0789C49.5503 28.0789 50.6444 27.4755 51.2025 26.4444L51.2203 27.9089L51.2714 27.9433L53.9631 27.6878V27.2289H52.0386V14.9667L51.5783 14.8311C50.8345 15.7878 49.9239 16.2956 48.8688 16.2789V16.6533C49.6815 16.8322 50.6243 16.6556 51.1858 16.2633V20.4167C50.5721 19.5822 49.6181 19.1056 48.4596 19.1056ZM45.0341 11.6644L46.7385 11.8178C48.732 11.9967 49.3446 12.5667 49.3446 13.3156C49.3446 14.3545 48.2884 15.1555 46.1593 15.1555C44.2503 15.1555 43.1596 14.3889 43.1596 13.3667C43.1596 12.6 43.8078 11.8678 45.0341 11.6644ZM43.6377 6.3678C43.6377 4.98891 44.6761 3.84888 46.2271 3.84888C47.7269 3.84888 48.7498 4.98892 48.7498 6.40225C48.7498 7.73114 47.7781 8.8878 46.1759 8.8878C44.7284 8.8878 43.6377 7.74669 43.6377 6.3678ZM42.3768 13.4178C42.3768 14.7289 43.6199 15.8189 46.1415 15.8189C48.7832 15.8189 50.164 14.7122 50.164 13.2478C50.164 11.63 48.2728 11.2011 46.415 11.0511C45.0341 10.9322 43.7566 10.8811 43.7566 10.1989C43.7566 9.85891 44.0979 9.53552 45.6145 9.53552H46.1759C48.2206 9.53552 49.5336 8.13888 49.5336 6.33443C49.5336 5.51554 49.2268 4.75002 48.6987 4.18891C48.8176 2.63891 50.1807 3.40555 50.1807 2.60444C50.1807 2.26444 49.9762 2.09446 49.6359 2.09446C48.851 2.09446 48.2551 2.8778 48.1528 3.72891C47.6413 3.38891 47.0109 3.18332 46.2793 3.18332C44.2002 3.18332 42.8538 4.5811 42.8538 6.33443C42.8538 7.6111 43.502 8.58225 44.4382 9.09336C43.5187 9.1778 43.0239 9.65555 43.0239 10.3011C43.0239 10.7611 43.3141 11.2044 44.0813 11.46C43.0918 11.7156 42.3768 12.5155 42.3768 13.4178ZM30.2624 26.0189C29.6654 26.6833 28.4902 27.3978 27.2294 27.3978C26.2232 27.3978 25.3882 26.9211 25.3882 25.9511C25.3882 24.74 26.4278 23.6178 30.2624 23.55V26.0189ZM24.5544 25.9511C24.5544 27.2289 25.5417 28.0789 27.0926 28.0789C28.4902 28.0789 29.6231 27.3889 30.3136 26.7C30.4626 27.4444 30.994 27.8233 31.7267 27.8233C32.5283 27.8233 33.0565 27.3978 33.2266 26.5122L32.8352 26.3422C32.6984 26.87 32.4427 27.16 31.9835 27.16C31.3865 27.16 31.1141 26.8533 31.1141 25.7622V22.0678C31.1141 20.3655 30.4148 19.1056 28.1489 19.1056C26.8202 19.1056 26.0531 19.4967 25.525 19.9733C25.0647 20.4 24.9279 20.7911 24.9279 21.03C24.9279 21.3189 25.1336 21.5233 25.4405 21.5233C25.8485 21.5233 25.9008 21.1311 26.1387 20.6889C26.4278 20.1778 26.8714 19.7867 28.081 19.7867C29.4441 19.7867 30.2624 20.5189 30.2624 21.9833V22.9367C26.6157 22.97 24.5544 24.0089 24.5544 25.9511ZM64.5265 1.46444C64.9368 1.46444 65.277 1.14111 65.277 0.732219C65.277 0.32333 64.9368 0 64.5265 0C64.1185 0 63.7939 0.32333 63.7939 0.732219C63.7939 1.14111 64.1185 1.46444 64.5265 1.46444ZM26.7691 3.86556C28.1489 3.86556 29.5464 4.76781 29.5976 6.86225H23.6849C23.9406 5.03892 25.0992 3.86556 26.7691 3.86556ZM26.9392 12.1744C28.7971 12.1744 29.87 11.3055 30.2958 9.99553L29.7688 9.80781C29.2874 10.9056 28.4291 11.4933 27.0415 11.4933C24.8946 11.4933 23.6338 10.0122 23.6338 7.69667V7.52665H30.3981C30.4148 7.40665 30.4148 7.13447 30.4148 6.98113C30.4148 5.10891 29.2396 3.18332 26.7858 3.18332C24.3831 3.18332 22.7988 5.02335 22.7988 7.6789C22.7988 10.3356 24.4009 12.1744 26.9392 12.1744Z" fill="white"/>
<path d="M0 43.6599H0.903915V0.0565638H0V43.6599Z" fill="white"/>
<path d="M89.5071 0.0560154V43.6604H90.411V0.0560154H89.5071Z" fill="white"/>
</svg>
