<svg width="97" height="32" viewBox="0 0 97 32" fill="none" xmlns="http://www.w3.org/2000/svg">
<path d="M96.0186 16.3148V19.7148H94.5075C91.0445 19.7148 89.0927 17.637 89.0927 13.8592V9.57775H84.4334V19.7148H80.9075V9.57775H78.9556V6.68145H80.8445V6.30367C80.8445 2.5259 82.7334 0.44812 86.2593 0.44812H87.7704V3.84812H86.2593C85.0001 3.84812 84.4334 4.66664 84.4334 6.36664V6.74441H89.0927V4.2259L92.6186 1.95923V6.61849H95.1371V9.51478H92.6186V13.7963C92.6186 15.4963 93.2482 16.3148 94.4445 16.3148H96.0186ZM48.4816 6.49256H52.0075V19.7148H48.4816V18.4555C47.4112 19.5259 45.963 20.1555 44.4519 20.0926C40.863 20.0926 38.0927 17.0703 38.0927 13.1666C38.0927 9.26293 40.863 6.24071 44.4519 6.24071C45.963 6.17775 47.4112 6.74441 48.4816 7.81478V6.49256ZM48.4816 13.1037C48.4816 10.9 46.9704 9.26293 44.9556 9.26293C42.9408 9.26293 41.4297 10.9 41.4297 13.1037C41.4297 15.3074 42.8779 16.9444 44.9556 16.9444C47.0334 16.9444 48.4816 15.3703 48.4816 13.1037ZM56.6038 7.6259V6.49256H53.2038V19.7148H56.7297V13.7333C56.7297 10.9 57.2334 9.45182 59.8779 9.45182H60.8223V6.05182H60.6964C58.8075 6.05182 57.4223 6.61849 56.6038 7.6259ZM61.7038 19.6518H65.2297V0.511083H61.7038V19.6518ZM10.7038 4.09997C12.7186 4.09997 14.5445 5.2333 15.489 6.9333V7.05923C15.5519 7.05923 15.6779 6.99627 15.6779 6.99627L18.7001 5.04441H18.889C18.889 4.98145 18.826 4.85553 18.826 4.85553C17.0001 2.14812 13.9779 0.511083 10.7667 0.511083C5.41489 0.44812 1.00749 4.7296 0.944524 10.0185V10.2074C0.881561 15.5592 5.226 19.9037 10.5779 19.9666H10.7667C13.9779 19.9666 17.0001 18.3926 18.826 15.7481V15.6222C18.889 15.6222 15.6149 13.4815 15.6149 13.4815V13.6074C14.5445 15.3074 12.7186 16.3777 10.7667 16.4407C7.49267 16.4407 4.97415 13.7333 4.97415 10.2703C4.97415 6.80738 7.11489 4.09997 10.7038 4.09997ZM19.8964 19.6518H23.4223V0.511083H19.8964V19.6518ZM79.0816 13.0407C79.0816 13.4185 79.0816 13.7333 79.0816 14.1111V14.4259H69.763C70.0779 16 71.526 17.1333 73.163 17.0074C74.4223 17.0074 75.6186 16.5666 76.626 15.7481L76.8779 15.5592L78.6408 18.0777L78.4519 18.2666C76.9408 19.5259 74.989 20.2185 73.0371 20.1555C69.0075 20.1555 66.2371 17.2592 66.2371 13.1666C66.2371 9.07404 68.9445 6.17775 72.9112 6.17775C76.5001 6.05182 79.0816 8.94812 79.1445 13.0407H79.0816ZM75.4927 11.6555C75.1149 10.0815 74.1075 9.19997 72.6593 9.19997C71.1482 9.13701 69.889 10.2074 69.7001 11.6555H75.4927ZM37.2742 13.0407C37.2742 13.4185 37.2742 13.7333 37.2742 14.1111V14.4259H27.9556C28.2704 16 29.7186 17.1333 31.3556 17.0074C32.6149 17.0074 33.8112 16.5666 34.8186 15.7481L35.0704 15.5592L36.8334 18.0777L36.6445 18.2666C35.1334 19.5259 33.1816 20.2185 31.2297 20.1555C27.2001 20.1555 24.4297 17.2592 24.4297 13.1666C24.4297 9.07404 27.1371 6.05182 31.0408 6.05182C34.9445 6.05182 37.3371 8.94812 37.3371 13.0407H37.2742ZM33.7482 11.6555C33.3704 10.0815 32.363 9.19997 30.9149 9.19997C29.4038 9.13701 28.1445 10.2074 27.9556 11.6555H33.7482Z" fill="#191818"/>
<path d="M95.5778 26.7037C95.4519 26.0741 94.8852 25.6963 94.3185 25.8222H94.2556C93.563 26.0741 92.8704 26.0741 92.1778 25.9481C91.2963 25.8222 90.3519 25.7592 89.4704 25.6333C87.9593 25.4444 86.4482 25.3185 84.937 25.1926C83.3 25.0666 81.6 25.0037 79.963 24.8778C78.3889 24.7518 76.8778 24.6259 75.3037 24.5629C72.0296 24.3741 68.6926 24.2481 65.4185 24.1852C62.6482 24.0592 53.0778 23.9963 50.3704 23.9963C47.663 23.9963 46.5296 24.0592 44.5778 24.1222C41.9963 24.1222 32.6778 24.3111 30.0963 24.5C27.3889 24.6259 24.6185 24.7518 21.9111 24.9407C19.3926 25.1296 16.8741 25.2555 14.4185 25.3815C13.8519 25.3815 13.2852 25.3815 12.7185 25.5704C11.2074 25.5704 9.94816 25.6963 8.62594 25.7592C7.55557 25.7592 6.4852 25.7592 5.47779 26.0111C5.03705 26.0111 4.84816 25.7592 4.15557 25.8222C3.46297 25.8852 2.83334 26.137 2.83334 26.5148C2.51853 26.5778 2.83334 26.7666 2.45557 26.8296V27.1444C2.70742 27.2704 2.83334 27.3963 2.45557 27.5852V27.7111C2.64446 27.7111 2.70742 27.7111 2.83334 27.7111V27.9629C2.58149 28.0889 2.70742 28.2148 2.83334 28.2778C2.95927 28.3407 3.14816 28.5296 3.0852 28.7185C3.0852 29.0333 3.0852 29.3481 3.40001 29.537V29.6629C3.40001 30.1037 4.0926 30.4815 4.15557 30.9222C4.15557 31.237 4.7852 31.5518 5.60371 31.4889C6.29631 31.4889 6.54816 31.1741 7.17779 31.0481C7.30371 31.0481 7.68149 31.0481 7.80742 31.0481C10.4519 30.8592 13.1593 30.6704 15.8037 30.4185C16.5593 30.4185 17.4408 30.4185 18.1333 30.2296C19.0778 30.0407 20.0852 30.0407 21.0296 29.9148C22.8556 29.7259 24.6815 29.6 26.4445 29.6C28.2074 29.6 29.4667 29.4111 30.9778 29.3481C31.7963 29.3481 32.6778 29.4111 33.4963 29.3481C33.8111 29.3481 34.1259 29.3481 34.5037 29.3481C35.3852 29.3481 43.1296 29.3481 44.0111 29.3481C45.7741 29.3481 47.537 29.3481 49.3 29.2222C51.3778 29.2222 60.2556 29.0963 62.3333 29.2222C63.0259 29.2222 63.7815 29.3481 64.4741 29.3481C66.4259 29.2222 68.3778 29.3481 70.3296 29.4741C72.0296 29.4741 73.7296 29.6629 75.4296 29.7259C77.1296 29.7889 78.7037 29.8518 80.3407 30.0407C80.9704 30.0407 81.663 30.1666 82.2926 30.2296C82.7963 30.2296 83.1741 30.1037 83.6778 30.1666C84.937 30.3555 86.2593 30.4815 87.5815 30.5444C88.2741 30.5444 88.9667 30.5444 89.5963 30.7333C90.6037 30.9222 91.5482 31.0481 92.5556 31.1741L93.1852 31.4259C93.7519 31.6778 94.3185 31.7407 94.9482 31.6148C95.263 31.4259 95.4519 30.9852 95.3259 30.6074V30.4815C95.3889 30.3555 95.4519 30.2926 95.3889 30.1666C95.5778 30.1666 95.5778 30.0407 95.5148 29.9148C95.6407 29.537 95.9556 29.2222 95.7667 28.8444C95.7037 28.7185 95.5148 28.4666 96.0185 28.3407V28.0259C95.7667 28.0259 95.7667 27.9 95.7037 27.837C95.5778 27.5222 95.6407 27.2074 95.6407 26.8926L95.5778 26.7037Z" fill="#191818"/>
</svg>
