<svg width="96" height="32" viewBox="0 0 96 32" fill="none" xmlns="http://www.w3.org/2000/svg">
<path d="M95.0747 15.8667V19.2667H93.5636C90.1007 19.2667 88.1488 17.1889 88.1488 13.4111V9.12963H83.4896V19.2667H79.9636V9.12963H78.0118V6.23333H79.9007V5.85555C79.9007 2.07778 81.7896 0 85.3155 0H86.8266V3.4H85.3155C84.0562 3.4 83.4896 4.21852 83.4896 5.91852V6.29629H88.1488V3.77778L91.6748 1.51111V6.17037H94.1933V9.06666H91.6748V13.3481C91.6748 15.0481 92.3044 15.8667 93.5007 15.8667H95.0747ZM47.5377 6.04444H51.0636V19.2667H47.5377V18.0074C46.4673 19.0778 45.0192 19.7074 43.5081 19.6444C39.9192 19.6444 37.1488 16.6222 37.1488 12.7185C37.1488 8.81481 39.9192 5.79259 43.5081 5.79259C45.0192 5.72963 46.4673 6.29629 47.5377 7.36666V6.04444ZM47.5377 12.6556C47.5377 10.4518 46.0266 8.81481 44.0118 8.81481C41.997 8.81481 40.4859 10.4518 40.4859 12.6556C40.4859 14.8593 41.934 16.4963 44.0118 16.4963C46.0896 16.4963 47.5377 14.9222 47.5377 12.6556ZM55.6599 7.17778V6.04444H52.2599V19.2667H55.7859V13.2852C55.7859 10.4518 56.2896 9.0037 58.934 9.0037H59.8785V5.6037H59.7525C57.8636 5.6037 56.4785 6.17037 55.6599 7.17778ZM60.7599 19.2037H64.2859V0.062963H60.7599V19.2037ZM9.75994 3.65185C11.7748 3.65185 13.6007 4.78518 14.5451 6.48518V6.61111C14.6081 6.61111 14.734 6.54815 14.734 6.54815L17.7562 4.59629H17.9451C17.9451 4.53333 17.8822 4.40741 17.8822 4.40741C16.0562 1.7 13.034 0.062963 9.8229 0.062963C4.47105 8.9407e-08 0.0636388 4.28148 0.000675847 9.57037V9.75926C-0.0622871 15.1111 4.28216 19.4555 9.63401 19.5185H9.8229C13.034 19.5185 16.0562 17.9444 17.8822 15.3V15.1741C17.9451 15.1741 14.671 13.0333 14.671 13.0333V13.1593C13.6007 14.8593 11.7747 15.9296 9.8229 15.9926C6.54882 15.9926 4.03031 13.2852 4.03031 9.82222C4.03031 6.35926 6.17105 3.65185 9.75994 3.65185ZM18.9525 19.2037H22.4785V0.062963H18.9525V19.2037ZM78.1377 12.5926C78.1377 12.9704 78.1377 13.2852 78.1377 13.663V13.9778H68.8192C69.134 15.5518 70.5822 16.6852 72.2192 16.5593C73.4785 16.5593 74.6747 16.1185 75.6822 15.3L75.934 15.1111L77.697 17.6296L77.5081 17.8185C75.997 19.0778 74.0451 19.7704 72.0933 19.7074C68.0636 19.7074 65.2933 16.8111 65.2933 12.7185C65.2933 8.62592 68.0007 5.72963 71.9673 5.72963C75.5562 5.6037 78.1377 8.5 78.2007 12.5926H78.1377ZM74.5488 11.2074C74.1711 9.63333 73.1636 8.75185 71.7155 8.75185C70.2044 8.68889 68.9451 9.75926 68.7562 11.2074H74.5488ZM36.3303 12.5926C36.3303 12.9704 36.3303 13.2852 36.3303 13.663V13.9778H27.0118C27.3266 15.5518 28.7747 16.6852 30.4118 16.5593C31.671 16.5593 32.8673 16.1185 33.8747 15.3L34.1266 15.1111L35.8896 17.6296L35.7007 17.8185C34.1896 19.0778 32.2377 19.7704 30.2859 19.7074C26.2562 19.7074 23.4859 16.8111 23.4859 12.7185C23.4859 8.62592 26.1933 5.6037 30.097 5.6037C34.0007 5.6037 36.3933 8.5 36.3933 12.5926H36.3303ZM32.8044 11.2074C32.4266 9.63333 31.4192 8.75185 29.971 8.75185C28.4599 8.68889 27.2007 9.75926 27.0118 11.2074H32.8044Z" fill="white"/>
<path d="M94.6339 26.2556C94.508 25.6259 93.9414 25.2482 93.3747 25.3741H93.3117C92.6191 25.6259 91.9265 25.6259 91.2339 25.5C90.3525 25.3741 89.408 25.3111 88.5265 25.1852C87.0154 24.9963 85.5043 24.8704 83.9932 24.7445C82.3562 24.6185 80.6562 24.5556 79.0191 24.4296C77.445 24.3037 75.9339 24.1778 74.3599 24.1148C71.0858 23.9259 67.7488 23.8 64.4747 23.737C61.7043 23.6111 52.1339 23.5482 49.4265 23.5482C46.7191 23.5482 45.5858 23.6111 43.6339 23.6741C41.0525 23.6741 31.7339 23.863 29.1525 24.0519C26.4451 24.1778 23.6747 24.3037 20.9673 24.4926C18.4488 24.6815 15.9302 24.8074 13.4747 24.9333C12.908 24.9333 12.3413 24.9333 11.7747 25.1222C10.2636 25.1222 9.00431 25.2482 7.68209 25.3111C6.61172 25.3111 5.54135 25.3111 4.53394 25.563C4.0932 25.563 3.90431 25.3111 3.21172 25.3741C2.51913 25.437 1.8895 25.6889 1.8895 26.0667C1.57468 26.1296 1.8895 26.3185 1.51172 26.3815V26.6963C1.76357 26.8222 1.8895 26.9482 1.51172 27.137V27.263C1.70061 27.263 1.76357 27.263 1.8895 27.263V27.5148C1.63764 27.6407 1.76357 27.7667 1.8895 27.8296C2.01542 27.8926 2.20431 28.0815 2.14135 28.2704C2.14135 28.5852 2.14135 28.9 2.45616 29.0889V29.2148C2.45616 29.6556 3.14876 30.0333 3.21172 30.4741C3.21172 30.7889 3.84135 31.1037 4.65987 31.0407C5.35246 31.0407 5.60431 30.7259 6.23394 30.6C6.35987 30.6 6.73764 30.6 6.86357 30.6C9.50801 30.4111 12.2154 30.2222 14.8599 29.9704C15.6154 29.9704 16.4969 29.9704 17.1895 29.7815C18.1339 29.5926 19.1414 29.5926 20.0858 29.4667C21.9117 29.2778 23.7376 29.1519 25.5006 29.1519C27.2636 29.1519 28.5228 28.963 30.0339 28.9C30.8525 28.9 31.7339 28.963 32.5525 28.9C32.8673 28.9 33.1821 28.9 33.5599 28.9C34.4413 28.9 42.1858 28.9 43.0673 28.9C44.8302 28.9 46.5932 28.9 48.3562 28.7741C50.4339 28.7741 59.3117 28.6482 61.3895 28.7741C62.0821 28.7741 62.8376 28.9 63.5302 28.9C65.4821 28.7741 67.4339 28.9 69.3858 29.0259C71.0858 29.0259 72.7858 29.2148 74.4858 29.2778C76.1858 29.3407 77.7599 29.4037 79.3969 29.5926C80.0265 29.5926 80.7191 29.7185 81.3487 29.7815C81.8525 29.7815 82.2302 29.6556 82.7339 29.7185C83.9932 29.9074 85.3154 30.0333 86.6376 30.0963C87.3302 30.0963 88.0228 30.0963 88.6525 30.2852C89.6599 30.4741 90.6043 30.6 91.6117 30.7259L92.2413 30.9778C92.808 31.2296 93.3747 31.2926 94.0043 31.1667C94.3191 30.9778 94.508 30.537 94.3821 30.1593V30.0333C94.4451 29.9074 94.508 29.8445 94.4451 29.7185C94.6339 29.7185 94.6339 29.5926 94.571 29.4667C94.6969 29.0889 95.0117 28.7741 94.8228 28.3963C94.7599 28.2704 94.571 28.0185 95.0747 27.8926V27.5778C94.8228 27.5778 94.8228 27.4519 94.7599 27.3889C94.6339 27.0741 94.6969 26.7593 94.6969 26.4445L94.6339 26.2556Z" fill="white"/>
</svg>
