<svg width="95" height="41" viewBox="0 0 95 41" fill="none" xmlns="http://www.w3.org/2000/svg">
<path fill-rule="evenodd" clip-rule="evenodd" d="M24.1111 6.15007C24.2667 4.89451 24.1111 3.07229 25.0667 2.21674C25.3556 0.883402 27.4556 1.19451 27.1222 0.338958C26.9222 -0.183264 25.9333 0.0167357 25.5333 0.16118C24.1276 0.60532 22.6997 0.97619 21.2556 1.27229L19.8556 0.872291C18.0444 1.11674 17 2.55007 16 3.69451C15.1556 4.65007 14.0222 7.02785 14.8889 8.39451C14.8889 8.70563 14.7889 9.00563 14.7444 9.31674L16.7889 12.3167C17.5 12.8167 17.5889 13.1945 18.3556 13.6945L18.8222 14.4056C19.7011 14.7845 20.6866 14.8358 21.6 14.5501C24.5444 14.8278 24.2333 8.83896 25.1667 7.5834C25.0045 6.99137 24.6284 6.4806 24.1111 6.15007ZM11.3778 24.1167C12.1308 24.0001 12.8738 23.8255 13.6 23.5945C14.4889 23.1501 17.5556 20.9945 16.5778 19.2501C16.2778 15.5723 11.8444 18.6834 9.91111 17.3945C8.06667 17.1501 5.92222 13.5278 5.35556 11.9834C5.27396 11.6583 5.12227 11.3549 4.91111 11.0945C4.91111 11.039 4.72222 11.2612 4.72222 11.2056C4.16667 11.8612 4.25556 12.4278 4.17778 14.0167H3.42222C3.43841 14.4415 3.30468 14.8584 3.04444 15.1945L2.87778 15.4834C2.4 15.3278 2.64444 15.5501 2.44444 15.1612C0.677778 15.2056 0.8 16.9723 0 17.9834C0.0333333 21.2834 6.57778 25.3612 11.3778 24.1167ZM33.1 14.1167C31.0695 14.3568 29.1242 15.0725 27.4222 16.2056C26.9866 16.5044 26.6099 16.8811 26.3111 17.3167C26.105 17.6928 26.0381 18.1295 26.1222 18.5501C26.1463 18.8139 26.2237 19.0701 26.3497 19.3031C26.4758 19.5362 26.6479 19.7411 26.8556 19.9056C30.3667 19.6501 36.4444 19.4278 37.6333 22.3723C37.6762 22.6268 37.7318 22.879 37.8 23.1278C38.9111 22.839 38.1111 22.939 39.8111 23.2056C40.4888 23.1933 41.1617 23.0887 41.8111 22.8945C41.9975 22.8406 42.1589 22.7226 42.2667 22.5612C42.2484 22.4173 42.2484 22.2717 42.2667 22.1278C42.556 22.1562 42.8477 22.1064 43.1111 21.9834C44.7333 21.7278 43.8778 20.9612 44.6444 20.1056C44.1222 14.539 38.4778 13.2612 33.1333 14.0834L33.1 14.1167ZM26.8444 26.0501C26.0333 26.6723 25.7333 26.5167 25.2111 27.4834C25.2111 27.4834 25.2889 27.6278 25.2111 27.6278C25.7 28.5945 26.8111 28.9834 27.6333 29.6612C27.8889 29.8834 28.5778 31.0723 28.9 31.1612C29.2667 31.5945 29.5111 32.8167 29.7444 32.8167C30 33.1501 29.7444 33.9278 29.9778 34.2723C29.9778 35.7056 29.7889 35.8167 29.5444 36.0834C29.5444 36.1834 29.6778 36.4501 29.6778 36.5501C29.6778 36.6501 30.3222 37.0278 30.5778 36.9723C31.3556 36.9723 34.5667 39.5056 34.8222 39.9945C37.1222 40.1612 36.9556 39.4612 38.5444 38.7834C38.9778 38.6056 39.3222 38.7834 39.6556 38.4834C39.9889 38.1834 39.9778 37.5834 40.2556 37.2834C40.2667 31.6167 32.5556 26.2501 26.8444 26.0501ZM17.7778 27.3501C17.4556 27.6834 16.5667 27.8167 16.3222 28.2056C15.77 29.1275 15.126 29.9912 14.4 30.7834C12.1778 32.8501 7.55555 33.8945 5.25556 31.8945C5.1 31.8945 5.18889 31.9945 5.36667 32.5612C5.53333 33.6723 6.4 36.1501 6.07778 36.7945C6.28889 37.5056 6.5 37.2501 6.9 37.639C7.3 38.0278 7.27778 38.6056 7.57778 38.7501L8.68889 38.6834C8.75556 38.8723 8.82222 39.0723 8.87778 39.2723L10.2333 39.1723C10.4889 39.2279 11.2556 39.6278 11.4778 39.6834L12.9778 39.5834C13.5249 39.6839 14.0875 39.6622 14.6253 39.5201C15.1631 39.378 15.6628 39.1188 16.0889 38.7612C16.6333 38.3945 17.2 38.4501 17.7 38.039C18.4877 37.3169 19.1687 36.4863 19.7222 35.5723C20.8333 33.5945 20.4444 28.9056 19.4556 27.7056C19.0778 27.2612 18.6222 27.2501 17.7778 27.3501Z" fill="white"/>
<path d="M73.0667 14.4611C77.8111 14.4611 81.0111 17.4611 81.0111 22.8167C81.0111 29.5611 76.5667 31.55 71.9889 31.55H65.8111V14.4723L73.0667 14.4611ZM71.6778 28.3167C74.3 28.3167 76.4222 27.45 76.4222 22.8278C76.4222 18.8945 74.3 17.5834 71.6778 17.5834H70.3V28.3167H71.6778ZM87.7333 28.9056C87.7333 30.15 87.8 31.5167 87.8 31.5167H83.2111V14.4723H94.0444V17.8056C94.0444 17.8056 91.6222 17.75 90.8 17.75H87.7333V21.1278H93.3555V24.2723H87.7333V28.9056ZM56.6667 28.1056C56.1661 28.1368 55.6644 28.0631 55.194 27.8891C54.7235 27.7152 54.2946 27.4448 53.9347 27.0954C53.5749 26.746 53.292 26.3253 53.1042 25.8601C52.9165 25.395 52.828 24.8958 52.8445 24.3945V24.2056C52.8445 24.2056 56.8556 24.1056 58.2111 24.1056C60.5222 24.1056 61.4778 24.1056 63.2889 24.05V22.7611C63.2889 16.9389 60.8222 14.1056 55.7333 14.1056C53.3889 14.1056 47.9556 14.9834 47.9556 23.15C47.9556 28.5834 50.7111 31.8389 55.5111 31.8389C58.2787 31.9841 61.0157 31.2021 63.2889 29.6167C63.1111 29.3389 61.7 26.8167 61.5222 26.5389C60.1173 27.5756 58.4126 28.1257 56.6667 28.1056ZM52.8445 20.9278C52.9111 19.9389 53.2667 17.5945 55.7667 17.5945C58.2667 17.5945 58.4667 19.7611 58.4667 20.9278V21.1278H52.8333L52.8445 20.9278Z" fill="white"/>
</svg>
