<svg width="116" height="44" viewBox="0 0 116 44" fill="none" xmlns="http://www.w3.org/2000/svg">
<path d="M5.62934 24.712H4.6296L0 14.7209H1.33505L5.14947 23.2286L8.91774 14.7209H10.1851L5.62934 24.712Z" fill="white"/>
<path d="M12.4091 13.6092H11.2678V12.2823H12.4091V13.6092Z" fill="white"/>
<path d="M12.4091 24.712H11.2678V14.7209H12.4091V24.712Z" fill="white"/>
<path d="M31.2414 13.5907H30.1001V12.2639H31.2414V13.5907Z" fill="white"/>
<path d="M31.2414 24.6936H30.1001V14.7025H31.2414V24.6936Z" fill="white"/>
<path d="M59.9601 24.6936H58.8188V12.2639H59.9601V24.6936Z" fill="white"/>
<path d="M86.449 13.5907H85.3108V12.2639H86.449V13.5907Z" fill="white"/>
<path d="M86.449 24.6936H85.3108V14.7025H86.449V24.6936Z" fill="white"/>
<path d="M55.7121 24.6936H54.574V12.2639H55.7121V14.7026H57.6716V15.7652H55.7121V24.6936Z" fill="white"/>
<path d="M82.2008 24.6936H81.0657V12.2639H82.2008V14.7026H84.1572V15.7714H82.2008V24.6936Z" fill="white"/>
<path d="M52.2452 15.6301C51.5623 14.9513 50.5349 14.6073 49.1876 14.6073C48.0248 14.6073 46.7697 14.9144 45.6561 15.4888L45.57 15.5287L45.9914 16.4747L46.0868 16.4255C47.1358 15.9188 48.0771 15.6792 49.0614 15.6792C51.0978 15.6792 52.1284 16.6037 52.1284 18.4219V18.4526H49.3352C46.3729 18.4526 44.8687 19.5522 44.8687 21.7205V21.7574C44.8687 23.8213 46.7482 24.9055 48.6031 24.9055C50.5165 24.9055 51.6762 23.9257 52.1314 23.3698V24.6966H53.2388V18.4096C53.2327 17.2057 52.9066 16.2935 52.2452 15.6301ZM52.1437 20.6947C52.1437 22.8846 50.4057 23.8643 48.6831 23.8643C47.1481 23.8643 46.0314 22.9521 46.0314 21.7021C46.0314 20.1326 47.022 19.4907 49.449 19.4907H52.1468V20.6947H52.1437Z" fill="white"/>
<path d="M68.7304 15.6301C68.0475 14.9513 67.0201 14.6073 65.6727 14.6073C64.513 14.6073 63.2549 14.9144 62.1382 15.4888L62.0552 15.5287L62.4735 16.4747L62.572 16.4255C63.6179 15.9188 64.5592 15.6792 65.5435 15.6792C67.5799 15.6792 68.6135 16.6037 68.6135 18.4219V18.4526H65.8142C62.8519 18.4526 61.3477 19.5522 61.3477 21.7205V21.7574C61.3477 23.8213 63.2241 24.9055 65.079 24.9055C67.0016 24.9055 68.1613 23.9257 68.6135 23.3698V24.6966H69.7148V18.4096C69.7148 17.2057 69.3948 16.2935 68.7304 15.6301ZM68.6289 20.6947C68.6289 22.8846 66.8909 23.8643 65.1682 23.8643C63.6332 23.8643 62.5166 22.9521 62.5166 21.7021C62.5166 20.1326 63.5102 19.4907 65.9342 19.4907H68.6289V20.6947V20.6947Z" fill="white"/>
<path d="M41.2018 24.6937H40.0606V19.4171C40.0606 18.2746 40.0606 15.5994 37.1259 15.5994C35.0342 15.5994 33.7883 17.1843 33.7883 19.8287V24.6937H32.6501V14.7026H33.7883V16.3673C34.1913 15.7499 35.2341 14.5337 37.2613 14.5337C39.8053 14.5337 41.2049 16.0724 41.2049 18.8673V24.6937H41.2018Z" fill="white"/>
<path d="M79.7028 24.6937H78.5585V19.4171C78.5585 18.2746 78.5585 15.5994 75.6208 15.5994C73.5351 15.5994 72.2893 17.1843 72.2893 19.8287V24.6937H71.1511V14.7026H72.2893V16.3673C72.6923 15.7499 73.7351 14.5337 75.7561 14.5337C78.3001 14.5337 79.7028 16.0724 79.7028 18.8673V24.6937Z" fill="white"/>
<path d="M27.5744 14.721V16.4226C26.9284 15.4428 25.495 14.5521 23.7262 14.5521C22.5542 14.5521 21.3822 15.019 20.5178 15.8421C19.5795 16.7205 19.0627 17.9398 19.0627 19.2697V19.3127C19.0627 20.6303 19.5765 21.8496 20.5178 22.7219C21.3822 23.5266 22.5542 23.9903 23.7262 23.9903C25.4765 23.9903 26.9131 23.0536 27.5744 22.0278V22.5345C27.5744 25.0622 26.2948 26.4505 23.9692 26.4505C22.3173 26.4505 21.1791 25.8024 20.1855 25.1052L20.1056 25.0469L19.4565 25.9621L19.5303 26.0236C19.7087 26.1771 21.3606 27.5316 23.9507 27.5316C25.3842 27.5316 26.6331 27.0617 27.4668 26.2079C28.3189 25.3417 28.6911 24.1992 28.6911 22.5161V14.721H27.5744ZM27.5652 19.2912C27.5652 21.5179 25.6242 22.8939 23.8246 22.8939C21.822 22.8939 20.2563 21.2999 20.2563 19.2697V19.2359C20.2563 17.1597 21.7574 15.6578 23.8185 15.6578C25.6642 15.6578 27.5652 17.0031 27.5652 19.2543V19.2912V19.2912Z" fill="white"/>
<path d="M92.758 24.8103C89.9495 24.8103 87.7439 22.559 87.7439 19.6873V19.6505C87.7439 16.7542 89.9495 14.4875 92.758 14.4875C95.0559 14.4875 96.3663 15.8267 96.717 16.2413L96.7755 16.3119L96.0556 17.089L95.9849 17.0091C94.9913 16.0355 93.93 15.5594 92.7426 15.5594C90.6201 15.5594 88.9559 17.3378 88.9559 19.6105V19.6474C88.9559 21.9386 90.6509 23.7292 92.8195 23.7292C94.4253 23.7292 95.4927 22.8047 95.9941 22.255L96.0618 22.1751L96.8124 22.8569L96.7601 22.9276C96.311 23.5818 94.9021 24.8103 92.758 24.8103Z" fill="white"/>
<path d="M14.9655 24.712H13.8242V14.721H14.9655V17.1013C15.8545 15.4857 17.4079 14.5582 19.1859 14.6319L19.2874 14.635V15.8205H19.0875C17.0388 15.8205 14.9655 17.2886 14.9655 20.5811V24.712Z" fill="white"/>
<path fill-rule="evenodd" clip-rule="evenodd" d="M105.718 0H115.5L108.234 16.1645C104.423 17.1981 102.037 15.6531 99.5629 14.0517C97.428 12.6697 95.2283 11.2457 91.9922 11.4008L100.741 1.81823C101.95 0.494486 102.691 0 105.718 0ZM103.463 2.69358C103.122 2.95772 102.685 3.75934 102.685 3.75934C102.196 4.51796 101.639 5.97991 101.211 7.43573C100.623 9.42081 100.247 11.2797 100.14 11.8059C100.127 11.8716 100.118 11.9165 100.113 11.9383C100.07 12.1349 100.002 12.3714 99.7902 12.3744C99.498 12.3744 99.4642 12.0243 99.4611 11.9905C99.458 11.9567 99.0919 7.60772 99.0919 7.60772C99.0919 7.60772 99.0735 7.42344 99.0243 7.41423C99.0243 7.41423 98.9597 7.38966 98.8797 7.57087L98.4644 8.45848C98.2891 8.83626 98.0214 8.68269 98.0214 8.68269C97.7784 8.57827 97.9292 8.30185 97.9292 8.30185L98.8274 6.08741C99.015 5.60521 99.335 5.66357 99.335 5.66357C99.5835 5.6833 99.5987 5.93342 99.6066 6.06459C99.6073 6.0763 99.608 6.08706 99.6087 6.09662C99.621 6.21334 99.9194 9.45667 99.9194 9.45667C99.9348 9.8068 99.9871 9.68395 99.9871 9.68395C100.688 5.8202 102.716 1.99024 102.716 1.99024C103.146 1.25619 103.675 1.68618 103.675 1.68618C103.875 1.84589 103.848 2.0916 103.848 2.0916C103.838 2.4663 103.463 2.69358 103.463 2.69358ZM101.614 8.12064C101.614 8.12064 101.667 7.64458 102.085 7.55244C102.085 7.55244 102.433 7.46337 102.356 7.99164L102.119 9.27546L102.042 9.75152C102.042 9.75152 102.008 10.0003 101.805 10.1201C101.805 10.1201 101.316 10.3934 101.359 10.0157L101.614 8.12064ZM102.762 8.9284C102.783 8.71033 102.922 7.72136 102.922 7.72136C102.966 7.12658 103.279 7.09332 103.294 7.0918C103.294 7.09175 103.294 7.09174 103.294 7.09174C103.337 7.0856 103.605 7.05488 103.605 7.05488C103.605 7.05488 103.715 7.0426 103.918 6.95353C104.186 6.83375 104.272 7.05488 104.272 7.05488C104.408 7.3313 103.958 7.53401 103.958 7.53401C103.537 7.76436 103.515 8.29263 103.515 8.29263L103.445 9.00211C103.389 9.51195 103.026 9.61024 103.026 9.61024C102.577 9.76073 102.762 8.9284 102.762 8.9284ZM102.768 6.18569C102.768 6.18569 102.851 6.36997 102.574 6.59111C102.574 6.59111 102.223 6.88903 102.085 6.64947C102.085 6.64947 101.974 6.42833 102.291 6.20412C102.291 6.20412 102.666 5.89085 102.768 6.18569ZM107.576 7.48794C107.514 7.89336 107.158 7.97014 107.158 7.97014C106.832 8.05614 106.899 7.73365 106.899 7.73365L106.948 7.43266L107.216 5.94306C107.275 5.60214 107.619 5.53764 107.619 5.53764C107.884 5.47957 107.816 5.83051 107.8 5.91313C107.799 5.9179 107.798 5.92178 107.797 5.92463C107.788 5.97684 107.576 7.48794 107.576 7.48794ZM108.176 4.3736C108.311 4.55481 108.013 4.80359 108.013 4.80359C107.757 5.05237 107.57 4.88037 107.573 4.88037C107.379 4.69917 107.696 4.4381 107.696 4.4381C108.05 4.18625 108.176 4.3736 108.176 4.3736ZM111.184 6.58497C111.507 6.44369 111.689 6.52661 111.76 6.64947C111.833 6.77846 111.812 6.90132 111.744 6.99038C111.643 7.13781 111.292 7.26066 111.021 7.33745C110.818 7.3958 110.661 7.4603 110.661 7.4603C110.181 7.6108 109.619 7.83193 109.619 7.83193C108.317 8.38477 107.151 8.98983 106.139 9.58567C106.124 9.73002 106.115 9.8498 106.112 9.93273C106.112 9.93273 105.927 12.0765 105.903 12.3929C105.903 12.3929 105.896 12.7829 105.952 13.0225C105.957 13.0461 105.963 13.0724 105.97 13.1008C106.032 13.3567 106.135 13.7836 105.841 13.9715C105.576 14.1435 105.34 13.9408 105.284 13.8733L105.284 13.873C105.25 13.8298 105.155 13.7093 105.229 13.1054C105.229 13.1054 105.389 11.5667 105.426 11.0691L105.509 9.96651C102.863 11.6097 101.43 13.0747 101.43 13.0747C101.285 13.2098 100.931 13.5078 100.676 13.1791C100.439 12.8659 101.079 12.3959 101.079 12.3959C102.479 11.2135 104.1 10.1631 105.558 9.32153L105.583 8.98061C105.583 8.98061 105.598 8.87004 105.484 8.9499C105.484 8.9499 104.992 9.23553 104.632 9.07275C104.632 9.07275 104.343 8.94683 104.355 8.51991C104.355 8.51991 104.352 7.17159 104.918 6.61568C104.918 6.61568 105.244 6.27476 105.561 6.29012C105.752 6.29626 105.727 6.57575 105.475 6.78768C105.258 6.97565 105.201 7.20134 105.134 7.46665C105.122 7.51346 105.11 7.56151 105.097 7.6108C105.097 7.6108 104.894 8.52298 105.232 8.48306C105.232 8.48306 105.576 8.5107 105.681 7.93636C105.681 7.93636 105.912 6.66789 105.936 6.51126C105.937 6.50541 105.938 6.49928 105.939 6.49291C105.965 6.32853 106.015 5.99869 106.309 6.00756C106.309 6.00756 106.619 6.00756 106.585 6.26248C106.585 6.26248 106.352 7.82886 106.216 8.95297C108.203 7.84422 109.748 7.19002 109.748 7.19002C109.809 7.15931 109.782 7.14702 109.782 7.14702C109.545 7.0641 109.659 6.5389 109.659 6.5389L109.775 5.467C109.778 5.20594 109.455 5.3595 109.455 5.3595C109.228 5.48543 109.071 5.78335 109.071 5.78335C108.939 5.96456 108.859 6.89824 108.859 6.89824C108.828 7.37737 108.548 7.4603 108.548 7.4603C108.216 7.57087 108.179 7.38966 108.179 7.38966C108.139 7.30366 108.216 6.8491 108.216 6.8491L108.36 5.68199C108.385 5.19365 108.745 5.09844 108.745 5.09844C108.828 5.07387 108.933 5.05544 109.049 5.09537C109.166 5.1353 109.246 5.12915 109.317 5.11072C109.437 5.08001 109.594 4.93259 109.594 4.93259C109.914 4.6531 110.114 4.67459 110.114 4.67459C110.489 4.67459 110.437 5.15065 110.437 5.15065L110.308 6.46519C110.266 6.99677 110.642 6.82625 110.682 6.80763C110.684 6.80677 110.686 6.80624 110.686 6.8061C110.695 6.79996 110.84 6.73546 111.184 6.58497Z" fill="white"/>
<path d="M47.3112 41.42C44.4781 41.42 42.2571 39.1718 42.2571 36.3001V36.2632C42.2571 33.37 44.4934 31.1034 47.3481 31.1034C50.1812 31.1034 52.4022 33.3516 52.4022 36.2233V36.2602C52.4053 39.1534 50.1658 41.42 47.3112 41.42ZM47.3112 32.1999C45.1671 32.1999 43.4906 33.9659 43.4906 36.2233V36.2602C43.4906 38.5391 45.1856 40.3236 47.3512 40.3236C49.4952 40.3236 51.1748 38.5545 51.1748 36.297V36.2602C51.1717 33.9812 49.4768 32.1999 47.3112 32.1999Z" fill="white"/>
<path d="M57.4009 30.1205H56.2627V28.7937H57.4009V30.1205Z" fill="white"/>
<path d="M57.4009 41.2234H56.2627V31.2323H57.4009V41.2234Z" fill="white"/>
<path d="M54.8507 41.2266H53.7095V28.7969H54.8507V41.2266Z" fill="white"/>
<path d="M67.7214 28.7845V32.937C66.7986 31.8006 65.3959 31.0881 63.7994 31.0881C60.9385 31.0881 58.696 33.3608 58.696 36.2602V36.297C58.696 39.1749 60.9201 41.4292 63.7624 41.4292C65.3774 41.4292 66.7955 40.7044 67.7245 39.5557V41.2143H68.8658V36.2602V36.2233V28.7845H67.7214ZM67.7061 36.3001C67.7061 38.6067 65.9896 40.4126 63.7994 40.4126C61.5876 40.4126 59.8527 38.5913 59.8527 36.2633V36.2264C59.8527 33.9198 61.5692 32.1169 63.7594 32.1169C65.9711 32.1169 67.7061 33.9383 67.7061 36.2663V36.3001Z" fill="white"/>
<path d="M93.5211 35.5999C91.9277 35.1546 90.7987 34.7614 90.7987 33.7663V33.7295C90.7987 32.7651 91.7769 32.0894 93.1766 32.0894C94.1517 32.0894 95.2068 32.4395 96.0712 33.0476L96.2681 33.1858L96.4004 32.9862L96.7418 32.4764L96.871 32.2829L96.6772 32.1539C95.6621 31.4659 94.3578 31.0543 93.192 31.0543C91.1709 31.0543 89.7005 32.203 89.7005 33.7847V33.8216C89.7005 35.6368 91.4724 36.1435 93.1827 36.6349C94.7823 37.0711 95.9113 37.4642 95.9113 38.5668V38.6006C95.9113 39.6172 94.8623 40.3513 93.4196 40.3513C92.2476 40.3513 91.0356 39.9059 90.0051 39.0982L89.3499 39.9336C90.4234 40.8304 91.9707 41.3863 93.3827 41.3863C95.4806 41.3863 97.0064 40.1916 97.0064 38.5422V38.5054C97.0095 36.6964 95.3606 36.0975 93.5211 35.5999Z" fill="white"/>
<path d="M40.9528 41.2296H39.8085V35.9531C39.8085 34.8105 39.8085 32.1354 36.8708 32.1354C34.7851 32.1354 33.5393 33.7202 33.5393 36.3646V41.2296H32.4011V28.7999H33.5393V32.9032C33.9423 32.2859 34.9851 31.0696 37.0061 31.0696C39.5501 31.0696 40.9528 32.6084 40.9528 35.4033V41.2296Z" fill="white"/>
<path d="M77.5373 32.1569C76.8544 31.4781 75.827 31.1342 74.4796 31.1342C73.3199 31.1342 72.0618 31.4413 70.9451 32.0156L70.8621 32.0556L71.2804 33.0015L71.3788 32.9524C72.4247 32.4456 73.366 32.2061 74.3504 32.2061C76.3868 32.2061 77.4204 33.1305 77.4204 34.9488V34.9795H74.6211C71.6588 34.9795 70.1545 36.079 70.1545 38.2474V38.2842C70.1545 40.3482 72.031 41.4323 73.8859 41.4323C75.8085 41.4323 76.9682 40.4526 77.4204 39.8967V41.2235H78.5217V34.9365C78.5217 33.7294 78.2017 32.8203 77.5373 32.1569ZM77.4358 37.2215C77.4358 39.4114 75.6978 40.3912 73.9751 40.3912C72.4401 40.3912 71.3235 39.479 71.3235 38.2289C71.3235 36.6595 72.3171 36.0176 74.7411 36.0176H77.4358V37.2215V37.2215Z" fill="white"/>
<path d="M88.1471 31.2324L84.3419 39.7001L84.2866 39.8199L84.2312 39.7001L80.1953 31.2324H78.9341L78.9771 31.3215L83.6713 41.0699L83.6836 41.0976L83.6713 41.1252C82.8992 42.7407 82.4563 42.9189 81.6995 42.9219C81.192 42.9219 80.6413 42.7469 80.1461 42.4305L79.94 42.2985L79.8169 42.5073L79.5062 43.0417L79.3986 43.2291L79.577 43.3519C80.143 43.7451 80.9766 43.9969 81.6965 43.9969H81.7088C83.2622 43.9908 83.8928 43.2199 84.7172 41.4907L89.3161 31.3153L89.353 31.2324H88.1471V31.2324Z" fill="white"/>
</svg>
