<svg width="198" height="44" viewBox="0 0 198 44" fill="none" xmlns="http://www.w3.org/2000/svg">
<path fill-rule="evenodd" clip-rule="evenodd" d="M21.4101 16.6663H19.7012V18.6853H21.4101V16.6663ZM147.291 18.7044H145.582V16.6663H147.291V18.7044ZM8.25646 38.7805H9.83095L17.953 21.0853H16.0713L9.08211 36.7424L2.01611 21.0853H0L8.25646 38.7805ZM21.4101 38.7805H19.7012V21.0853H21.4101V38.7805ZM51.5929 18.7044H53.3018V16.6663H51.5929V18.7044ZM53.3018 38.7805H51.5929V21.0853H53.3018V38.7805ZM100.345 38.7805H102.053V16.6663H100.345V38.7805ZM147.291 38.7805H145.582V21.0853H147.291V38.7805ZM95.4094 22.6282H98.9616V21.0663H95.4094V16.6663H93.7005V38.7996H95.4094V22.6282ZM140.303 22.6282V38.7996H138.594V16.6663H140.303V21.0853H143.874V22.6282H140.303ZM90.0139 27.6187C90.0139 24.0187 87.7865 22.4758 84.2344 22.4758C82.3718 22.4758 80.6054 22.9329 78.7429 23.8472L78.1284 22.4758C80.0101 21.5234 82.2374 20.9139 84.484 20.9139C86.8073 20.9139 88.6698 21.4853 89.9179 22.7234C91.2811 24.0758 91.6652 25.8282 91.6652 27.6187V38.7996H90.0331V35.9996C89.6875 36.7044 87.4985 39.1806 83.4279 39.1806C79.9909 39.1806 76.8227 37.1615 76.8227 33.6568V33.5996C76.8227 27.8853 82.9479 27.8853 84.7528 27.8853H90.0139V27.6187ZM90.0538 31.733C90.0538 35.8854 86.7128 37.6378 83.5638 37.6378C80.6645 37.6378 78.5332 35.9426 78.5524 33.5426C78.5524 30.4569 80.7029 29.3711 84.9655 29.3711H90.0538V31.733ZM117.433 27.6187C117.433 24.0187 115.206 22.4758 111.654 22.4758C109.791 22.4758 108.025 22.9329 106.162 23.8472L105.548 22.4758C107.43 21.5234 109.657 20.9139 111.903 20.9139C114.227 20.9139 116.089 21.4853 117.337 22.7234C118.701 24.0758 119.085 25.8282 119.085 27.6187V38.7996H117.453V35.9996C117.107 36.7044 114.918 39.1806 110.847 39.1806C107.41 39.1806 104.242 37.1615 104.242 33.6568V33.5996C104.242 27.8853 110.367 27.8853 112.191 27.8853H117.433V27.6187ZM117.471 31.733C117.471 35.8854 114.13 37.6378 110.981 37.6378C108.082 37.6378 105.951 35.9426 105.97 33.5426C105.97 30.4569 108.121 29.3711 112.383 29.3711H117.471V31.733ZM68.9889 38.7808H70.6786V28.4189C70.6786 23.295 68.0289 20.7617 63.6894 20.7617C59.158 20.7617 57.3531 24.1712 57.1995 24.5903V21.0665H55.4906V38.7617H57.1995V30.1522C57.1995 24.6855 60.022 22.3046 63.459 22.3046C68.9313 22.3046 68.9889 27.2189 68.9889 29.3903V38.7808ZM136.5 38.7808H134.81V29.3903C134.81 27.2189 134.752 22.3046 129.28 22.3046C125.843 22.3046 123.02 24.6855 123.02 30.1522V38.7617H121.312V21.0665H123.02V24.5903C123.174 24.1712 124.979 20.7617 129.51 20.7617C133.85 20.7617 136.5 23.295 136.5 28.4189V38.7808ZM40.9367 43.8853C43.4712 43.8853 45.7178 43.0663 47.1962 41.5424C48.5787 40.1329 49.366 38.2091 49.366 34.9901V21.0853H47.7147V24.6853C46.793 22.7044 43.9705 20.7805 40.5143 20.7805C36.3476 20.7805 32.2194 24.0567 32.2194 29.1234V29.1996C32.2194 34.2282 36.3476 37.4663 40.5143 37.4663C43.9321 37.4663 46.7354 35.4663 47.7147 33.3901V35.0091C47.7147 39.8282 45.1609 42.2853 40.9559 42.2853C38.0757 42.2853 36.002 41.2567 33.9667 39.8091L32.9874 41.1615C34.1587 42.171 37.0965 43.8853 40.9367 43.8853ZM34.0243 29.1234C34.0243 33.0282 37.0965 35.8663 40.7063 35.8663C44.2969 35.8663 47.6955 33.1615 47.7147 29.1615V29.0853C47.7147 25.0282 44.2969 22.3996 40.7063 22.3996C37.0773 22.3996 34.0243 24.952 34.0243 29.0472V29.1234ZM164.764 34.6854C163.88 35.6569 161.883 37.4092 158.85 37.4092C154.817 37.4092 151.63 34.0569 151.63 29.8283V29.7521C151.63 25.5616 154.702 22.2473 158.696 22.2473C160.578 22.2473 162.651 22.8759 164.725 24.933L165.781 23.7711C164.648 22.4378 162.229 20.6664 158.715 20.6664C153.435 20.6664 149.768 24.914 149.768 29.8092V29.8854C149.768 34.7807 153.435 38.9711 158.715 38.9711C162.402 38.9711 164.975 36.914 165.839 35.6569L164.764 34.6854ZM25.4222 38.7805H23.7133V21.0853H25.4222V25.9805C26.8431 22.8377 29.7617 20.7805 33.2755 20.9139V22.6853H33.1027C29.0128 22.6853 25.4222 25.752 25.4222 31.4853V38.7805Z" fill="white"/>
<path fill-rule="evenodd" clip-rule="evenodd" d="M184.388 0H197.617L187.786 21.6952C182.631 23.0863 179.408 21.0114 176.065 18.8597C173.184 17.0046 170.213 15.0924 165.84 15.2952L177.667 2.4381C179.3 0.666667 180.298 0 184.388 0ZM181.354 3.59975C180.894 3.9426 180.298 5.02832 180.298 5.02832C179.626 6.03784 178.877 7.99975 178.282 9.96165C177.485 12.6597 176.97 15.1872 176.834 15.8516C176.82 15.9235 176.809 15.9737 176.804 15.9997C176.746 16.2664 176.65 16.5902 176.362 16.5902C175.978 16.5902 175.921 16.114 175.921 16.0759C175.921 16.0378 175.421 10.1902 175.421 10.1902C175.421 10.1902 175.383 9.96165 175.325 9.9426C175.325 9.9426 175.248 9.90451 175.133 10.1521L174.576 11.3521C174.346 11.8664 173.981 11.6569 173.981 11.6569C173.674 11.5236 173.866 11.1426 173.866 11.1426L175.076 8.17118C175.325 7.52356 175.767 7.59975 175.767 7.59975C176.087 7.61645 176.111 7.92625 176.126 8.10496C176.128 8.12997 176.129 8.15246 176.132 8.17118C176.151 8.32356 176.554 12.6855 176.554 12.6855C176.573 13.1617 176.65 12.9902 176.65 12.9902C177.591 7.79022 180.337 2.64737 180.337 2.64737C180.932 1.67594 181.642 2.24737 181.642 2.24737C181.911 2.45689 181.873 2.79975 181.873 2.79975C181.854 3.29498 181.354 3.59975 181.354 3.59975ZM178.859 10.8758C178.859 10.8758 178.936 10.2472 179.493 10.1139C179.493 10.1139 179.954 9.99962 179.877 10.7044L179.55 12.4187L179.454 13.0663C179.454 13.0663 179.397 13.4091 179.128 13.5615C179.128 13.5615 178.456 13.9425 178.514 13.4282L178.859 10.8758ZM180.605 10.3425C180.605 10.3425 180.413 11.6758 180.394 11.9615C180.394 11.9615 180.144 13.0853 180.758 12.8758C180.758 12.8758 181.238 12.7425 181.315 12.0568L181.411 11.1044C181.411 11.1044 181.45 10.3996 182.006 10.0949C182.006 10.0949 182.621 9.82819 182.429 9.44724C182.429 9.44724 182.314 9.16153 181.949 9.31391C181.68 9.42819 181.526 9.44724 181.526 9.44724C181.526 9.44724 181.162 9.48534 181.104 9.50438C181.105 9.50438 181.104 9.50433 181.104 9.50438L181.103 9.50471C181.074 9.50916 180.677 9.57012 180.605 10.3425ZM180.413 8.30436C180.413 8.30436 180.509 8.53293 180.144 8.83769C180.144 8.83769 179.664 9.23769 179.492 8.91388C179.492 8.91388 179.338 8.62817 179.76 8.32341C179.76 8.32341 180.279 7.90436 180.413 8.30436ZM186.346 10.6855C186.346 10.6855 186.826 10.5903 186.922 10.0379C186.922 10.0379 187.21 7.99981 187.23 7.94267C187.249 7.86648 187.364 7.33314 186.98 7.42838C186.98 7.42838 186.519 7.52362 186.423 7.98076L186.058 9.98076L186.001 10.3808C186.001 10.3617 185.905 10.7998 186.346 10.6855ZM187.709 5.86625C187.901 6.11386 187.498 6.43767 187.498 6.43767C187.197 6.71989 186.969 6.58252 186.902 6.54257C186.892 6.53668 186.886 6.53291 186.884 6.53291C186.634 6.28529 187.056 5.94244 187.056 5.94244C187.537 5.61863 187.709 5.86625 187.709 5.86625ZM192.568 8.91403C192.472 8.74261 192.222 8.62832 191.781 8.8188C191.32 9.02832 191.128 9.10451 191.109 9.10451C191.107 9.10451 191.101 9.10691 191.091 9.1107C190.992 9.14825 190.538 9.32212 190.59 8.64737L190.763 6.87594C190.763 6.87594 190.84 6.22832 190.321 6.22832C190.321 6.22832 190.053 6.19023 189.611 6.57118C189.611 6.57118 189.4 6.76165 189.227 6.79975C189.131 6.8188 189.016 6.83784 188.862 6.7807C188.708 6.72356 188.555 6.74261 188.459 6.7807C188.459 6.7807 187.979 6.91403 187.94 7.56165L187.748 9.12356C187.748 9.12356 187.652 9.73308 187.691 9.84737C187.691 9.84737 187.748 10.095 188.19 9.94261C188.19 9.94261 188.574 9.82832 188.612 9.19975C188.612 9.19975 188.728 7.94261 188.9 7.69499C188.9 7.69499 189.112 7.29499 189.419 7.12356C189.419 7.12356 189.861 6.91403 189.841 7.27594L189.688 8.70451C189.688 8.70451 189.534 9.40927 189.861 9.52356C189.861 9.52356 189.899 9.54261 189.822 9.5807C189.822 9.5807 187.729 10.4569 185.041 11.9426C185.233 10.4378 185.54 8.32356 185.54 8.32356C185.579 7.9807 185.156 7.9807 185.156 7.9807C184.734 7.96165 184.676 8.43784 184.657 8.64737C184.619 8.85689 184.311 10.5521 184.311 10.5521C184.177 11.3331 183.697 11.295 183.697 11.295C183.236 11.3521 183.505 10.114 183.505 10.114C183.518 10.0648 183.53 10.0166 183.542 9.96929C183.637 9.59544 183.717 9.27977 184.023 9.00927C184.369 8.72356 184.407 8.34261 184.139 8.34261C183.716 8.32356 183.275 8.7807 183.275 8.7807C182.506 9.52356 182.506 11.3331 182.506 11.3331C182.487 11.9045 182.891 12.0759 182.891 12.0759C183.371 12.3045 184.043 11.9045 184.043 11.9045C184.196 11.8093 184.177 11.9426 184.177 11.9426L184.139 12.3997C182.161 13.5236 179.972 14.9331 178.09 16.5331C178.09 16.5331 177.226 17.1617 177.553 17.5807C177.898 18.0188 178.378 17.6188 178.57 17.4474C178.57 17.4474 180.51 15.4664 184.081 13.2759L183.966 14.7617C183.908 15.4283 183.697 17.5045 183.697 17.5045C183.605 18.2896 183.725 18.4622 183.769 18.5255L183.774 18.5331C183.851 18.6283 184.158 18.895 184.523 18.6664C184.929 18.4037 184.783 17.819 184.697 17.4748C184.693 17.4586 184.689 17.4429 184.685 17.4278C184.682 17.4148 184.679 17.4023 184.676 17.3902C184.599 17.0664 184.619 16.5521 184.619 16.5521C184.657 16.1331 184.907 13.2378 184.907 13.2378C184.907 13.1542 184.917 13.0501 184.93 12.9181C184.935 12.8701 184.94 12.8174 184.945 12.7617C186.308 11.9617 187.883 11.1426 189.649 10.3997C189.649 10.3997 190.417 10.095 191.051 9.90451C191.051 9.90451 191.262 9.82832 191.531 9.75213C191.896 9.63784 192.376 9.48546 192.51 9.27594C192.625 9.25689 192.664 9.08546 192.568 8.91403Z" fill="white"/>
</svg>
