<svg width="191" height="44" viewBox="0 0 191 44" fill="none" xmlns="http://www.w3.org/2000/svg">
<path fill-rule="evenodd" clip-rule="evenodd" d="M21.3557 16.663H19.651V18.677H21.3557V16.663ZM146.923 18.696H145.219V16.663H146.923V18.696ZM8.23582 38.722H9.80637L17.9081 21.071H16.0311L9.0594 36.689L2.01107 21.071H0L8.23582 38.722ZM21.3557 38.722H19.651V21.071H21.3557V38.722ZM51.4643 18.696H53.1689V16.663H51.4643V18.696ZM53.1689 38.722H51.4643V21.071H53.1689V38.722ZM100.094 38.722H101.799V16.663H100.094V38.722ZM146.923 38.722H145.219V21.071H146.923V38.722ZM95.1716 38.722V22.61H98.7149V21.052H95.1716V16.663H93.467V21.071V22.629V38.741H95.1716V38.722ZM139.951 22.61V38.722V38.741H138.247V22.629V21.071V16.663H139.951V21.071H143.514V22.61H139.951ZM89.7896 27.835V27.588C89.7896 23.997 87.5678 22.458 84.0245 22.458C82.1667 22.458 80.4046 22.914 78.5468 23.826L77.9339 22.458C79.8109 21.508 82.0326 20.9 84.2735 20.9C86.591 20.9 88.4489 21.47 89.6938 22.705C91.0537 24.054 91.4368 25.802 91.4368 27.588V38.741H89.8087V35.948C89.464 36.651 87.2805 39.121 83.2201 39.121C79.7917 39.121 76.6314 37.107 76.6314 33.611V33.554C76.6314 27.854 82.7413 27.854 84.5417 27.854H89.7896V27.835ZM89.8279 31.692C89.8279 35.834 86.4953 37.582 83.3542 37.582C80.4621 37.582 78.3361 35.891 78.3552 33.497C78.3552 30.419 80.5004 29.336 84.7523 29.336H89.8279V31.692ZM117.14 27.835V27.588C117.14 23.997 114.918 22.458 111.375 22.458C109.517 22.458 107.755 22.914 105.897 23.826L105.284 22.458C107.161 21.508 109.383 20.9 111.624 20.9C113.942 20.9 115.799 21.47 117.044 22.705C118.404 24.054 118.787 25.802 118.787 27.588V38.741H117.159V35.948C116.815 36.651 114.631 39.121 110.571 39.121C107.142 39.121 103.982 37.107 103.982 33.611V33.554C103.982 27.854 110.092 27.854 111.911 27.854H117.14V27.835ZM117.178 31.692C117.178 35.834 113.846 37.582 110.705 37.582C107.813 37.582 105.687 35.891 105.706 33.497C105.706 30.419 107.851 29.336 112.103 29.336H117.178V31.692ZM68.817 38.722H70.5025V28.386C70.5025 23.275 67.8593 20.748 63.5307 20.748C59.0106 20.748 57.2102 24.149 57.057 24.567V21.052H55.3524V38.703H57.057V30.115C57.057 24.662 59.8725 22.287 63.3009 22.287C68.7595 22.287 68.817 27.189 68.817 29.355V38.722ZM136.159 38.722H134.474V29.355C134.474 27.189 134.416 22.287 128.958 22.287C125.529 22.287 122.714 24.662 122.714 30.115V38.703H121.009V21.052H122.714V24.567C122.867 24.149 124.667 20.748 129.187 20.748C133.516 20.748 136.159 23.275 136.159 28.386V38.722ZM40.8343 43.814C43.3626 43.814 45.6035 42.997 47.0782 41.477C48.4573 40.071 49.2425 38.152 49.2425 34.941V21.071H47.5954V24.662C46.676 22.686 43.8605 20.767 40.413 20.767C36.2568 20.767 32.1389 24.035 32.1389 29.089V29.165C32.1389 34.181 36.2568 37.411 40.413 37.411C43.8222 37.411 46.6186 35.416 47.5954 33.345V34.96C47.5954 39.767 45.048 42.218 40.8535 42.218C37.9805 42.218 35.912 41.192 33.8818 39.748L32.905 41.097C34.0733 42.104 37.0037 43.814 40.8343 43.814ZM33.9392 29.089C33.9392 32.984 37.0037 35.815 40.6045 35.815C44.1861 35.815 47.5762 33.117 47.5954 29.127V29.051C47.5954 25.004 44.1861 22.382 40.6045 22.382C36.9846 22.382 33.9392 24.928 33.9392 29.013V29.089ZM164.352 34.637C163.471 35.606 161.48 37.354 158.453 37.354C154.431 37.354 151.252 34.01 151.252 29.792V29.716C151.252 25.536 154.316 22.23 158.3 22.23C160.177 22.23 162.246 22.857 164.314 24.909L165.368 23.75C164.238 22.42 161.824 20.653 158.319 20.653C153.052 20.653 149.394 24.89 149.394 29.773V29.849C149.394 34.732 153.052 38.912 158.319 38.912C161.997 38.912 164.563 36.86 165.425 35.606L164.352 34.637ZM25.3587 38.722H23.654V21.071H25.3587V25.954C26.776 22.819 29.6873 20.767 33.1923 20.9V22.667H33.0199C28.9403 22.667 25.3587 25.726 25.3587 31.445V38.722Z" fill="#5B056A"/>
<path d="M190.018 0.0379639H176.821C172.741 0.0379639 171.746 0.702964 170.118 2.46996L158.319 15.295C167.743 14.858 170.635 24.263 180.211 21.679L190.018 0.0379639Z" fill="#DA0530"/>
<path fill-rule="evenodd" clip-rule="evenodd" d="M172.742 5.05395C172.742 5.05395 173.335 3.97095 173.795 3.62895C173.795 3.62895 174.293 3.32495 174.312 2.83095C174.312 2.83095 174.35 2.48895 174.082 2.27995C174.082 2.27995 173.374 1.70995 172.78 2.67895C172.78 2.67895 170.041 7.80895 169.102 12.9959C169.102 12.9959 169.026 13.1669 169.007 12.6919C169.007 12.6919 168.604 8.34095 168.585 8.18895C168.583 8.17027 168.581 8.14787 168.579 8.1229C168.565 7.94464 168.541 7.63561 168.221 7.61895C168.221 7.61895 167.781 7.54295 167.532 8.18895L166.325 11.1529C166.325 11.1529 166.134 11.5329 166.44 11.6659C166.44 11.6659 166.804 11.8749 167.034 11.3619L167.589 10.1649C167.704 9.91795 167.781 9.95595 167.781 9.95595C167.838 9.97495 167.877 10.2029 167.877 10.2029C167.877 10.2029 168.375 16.0359 168.375 16.0739C168.375 16.1119 168.432 16.5869 168.815 16.5869C169.102 16.5869 169.198 16.2639 169.256 15.9979C169.261 15.972 169.271 15.922 169.286 15.8502L169.286 15.8501C169.421 15.1875 169.936 12.6663 170.73 9.97495C171.324 8.01795 172.071 6.06095 172.742 5.05395ZM171.937 10.127C171.382 10.26 171.305 10.887 171.305 10.887L170.96 13.433C170.903 13.9459 171.573 13.5659 171.573 13.5659C171.841 13.4139 171.899 13.0719 171.899 13.0719L171.995 12.426L172.32 10.716C172.397 10.013 171.937 10.127 171.937 10.127ZM172.837 11.97C172.856 11.685 173.048 10.355 173.048 10.355C173.12 9.58453 173.516 9.52372 173.545 9.51929L173.546 9.51906C173.547 9.51898 173.547 9.51896 173.546 9.51896C173.603 9.49996 173.967 9.46196 173.967 9.46196C173.967 9.46196 174.121 9.44296 174.389 9.32896C174.753 9.17696 174.867 9.46196 174.867 9.46196C175.059 9.84196 174.446 10.108 174.446 10.108C173.891 10.412 173.852 11.115 173.852 11.115L173.757 12.065C173.68 12.749 173.201 12.882 173.201 12.882C172.588 13.091 172.837 11.97 172.837 11.97ZM172.588 8.85395C172.952 8.54995 172.856 8.32195 172.856 8.32195C172.722 7.92295 172.205 8.34095 172.205 8.34095C171.784 8.64495 171.937 8.92995 171.937 8.92995C172.109 9.25295 172.588 8.85395 172.588 8.85395ZM179.349 10.051C179.254 10.602 178.775 10.697 178.775 10.697C178.334 10.811 178.43 10.374 178.43 10.393L178.487 9.99395L178.851 7.99895C178.947 7.54295 179.407 7.44795 179.407 7.44795C179.79 7.35295 179.675 7.88495 179.656 7.96095C179.637 8.01795 179.349 10.051 179.349 10.051ZM179.924 6.45994C179.924 6.45994 180.326 6.13694 180.135 5.88994C180.135 5.88994 179.962 5.64294 179.483 5.96594C179.483 5.96594 179.062 6.30794 179.311 6.55494C179.313 6.55494 179.32 6.55871 179.329 6.56458C179.396 6.60443 179.623 6.74145 179.924 6.45994ZM184.195 8.83495C184.636 8.64495 184.885 8.75895 184.98 8.92995C185.076 9.10095 185.038 9.27195 184.923 9.29095C184.789 9.49995 184.31 9.65195 183.946 9.76595C183.678 9.84195 183.467 9.91795 183.467 9.91795C182.835 10.1079 182.069 10.4119 182.069 10.4119C180.307 11.1529 178.736 11.9699 177.377 12.7679C177.371 12.8239 177.366 12.8758 177.362 12.924C177.349 13.0557 177.338 13.1595 177.338 13.2429C177.338 13.2429 177.089 16.1309 177.051 16.5489C177.051 16.5489 177.032 17.0619 177.108 17.3849C177.115 17.411 177.122 17.4392 177.129 17.4693C177.215 17.8127 177.36 18.3959 176.955 18.6579C176.591 18.8859 176.285 18.6199 176.208 18.5249C176.207 18.5226 176.205 18.5201 176.203 18.5173C176.159 18.4542 176.04 18.2821 176.132 17.4989C176.132 17.4989 176.342 15.4279 176.4 14.7629L176.515 13.2809C172.952 15.4659 171.018 17.4419 171.018 17.4419C170.826 17.6129 170.347 18.0119 170.003 17.5749C169.677 17.1569 170.539 16.5299 170.539 16.5299C172.416 14.9339 174.599 13.5279 176.572 12.4069L176.61 11.9509C176.61 11.9509 176.63 11.8179 176.476 11.9129C176.476 11.9129 175.806 12.3119 175.327 12.0839C175.327 12.0839 174.925 11.9129 174.944 11.3429C174.944 11.3429 174.944 9.53795 175.71 8.79695C175.71 8.79695 176.151 8.34095 176.572 8.35995C176.84 8.35995 176.802 8.73995 176.457 9.02495C176.151 9.29477 176.072 9.60949 175.977 9.9824C175.965 10.0296 175.953 10.0778 175.94 10.1269C175.94 10.1269 175.672 11.3619 176.132 11.3049C176.132 11.3049 176.61 11.3429 176.745 10.5639C176.745 10.5639 177.051 8.87295 177.089 8.66395C177.108 8.45495 177.166 7.97995 177.587 7.99895C177.587 7.99895 178.009 7.99895 177.97 8.34095C177.97 8.34095 177.664 10.4499 177.472 11.9509C180.154 10.4689 182.241 9.59495 182.241 9.59495C182.318 9.55695 182.28 9.53795 182.28 9.53795C181.954 9.42395 182.107 8.72095 182.107 8.72095L182.261 7.29595C182.28 6.93495 181.839 7.14395 181.839 7.14395C181.533 7.31495 181.322 7.71395 181.322 7.71395C181.15 7.96095 181.035 9.21495 181.035 9.21495C180.996 9.84195 180.613 9.95595 180.613 9.95595C180.173 10.1079 180.115 9.86095 180.115 9.86095C180.077 9.74695 180.173 9.13895 180.173 9.13895L180.364 7.58095C180.403 6.93495 180.882 6.80195 180.882 6.80195C180.977 6.76395 181.131 6.74495 181.284 6.80195C181.437 6.85895 181.552 6.83995 181.648 6.82095C181.82 6.78295 182.031 6.59295 182.031 6.59295C182.471 6.21295 182.739 6.25095 182.739 6.25095C183.257 6.25095 183.18 6.89695 183.18 6.89695L183.008 8.66395C182.955 9.33701 183.409 9.16358 183.507 9.12612C183.517 9.12234 183.523 9.11995 183.525 9.11995C183.544 9.11995 183.735 9.04395 184.195 8.83495Z" fill="white"/>
</svg>
