<svg width="79" height="44" viewBox="0 0 79 44" fill="none" xmlns="http://www.w3.org/2000/svg">
<path d="M47.9915 43.9441C44.3599 43.4579 41.3544 41.1637 40.3327 38.0977C39.4744 35.522 39.9807 33.5312 41.5388 33.3555C42.2432 33.2761 42.7008 33.4032 43.1404 33.8004C43.5907 34.2072 43.7078 34.5098 43.8067 35.5224C44.0962 38.4876 46.2834 40.4779 49.2524 40.4779C50.3233 40.4779 50.9907 40.3332 51.8926 39.9051C53.6375 39.0772 54.5614 37.5001 54.4574 35.5274C54.3876 34.2065 53.8397 33.2001 52.7399 32.3734C51.8807 31.7275 50.6955 31.1856 48.4614 30.4171C45.3701 29.3539 43.968 28.6725 42.6505 27.5935C40.2006 25.5872 39.2728 21.9008 40.3533 18.4671C40.8145 17.0017 41.4264 15.9975 42.5521 14.8586C44.2316 13.1596 46.4177 12.2861 48.983 12.2889C53.6116 12.2938 57.3664 15.1644 58.2134 19.3445C58.3454 19.9959 58.3725 20.4886 58.3278 21.4263C58.2358 23.3587 57.7587 24.741 56.8805 25.6192C55.8934 26.6062 54.3786 26.4314 53.788 25.2622C53.4935 24.6794 53.5012 24.3313 53.825 23.5738C54.308 22.4442 54.4774 21.7894 54.4774 21.0516C54.4774 19.6342 54.0025 18.4481 53.0291 17.4345C52.3156 16.6915 51.5194 16.2399 50.433 15.9621C47.6401 15.2477 44.9354 16.6654 44.0496 19.3079C43.7349 20.2468 43.7339 21.6716 44.0472 22.5524C44.3414 23.379 44.8898 24.1494 45.5805 24.7062C46.3587 25.3336 48.0782 26.1628 49.9831 26.8293C53.0598 27.9057 54.1028 28.3924 55.411 29.3618C56.7487 30.3532 57.5573 31.4993 58.0675 33.1273C58.2733 33.7841 58.3065 34.102 58.3069 35.4218C58.3073 36.7107 58.2707 37.0803 58.0765 37.7505C57.1678 40.8859 54.7408 43.087 51.4107 43.796C50.5045 43.9889 48.8595 44.0603 47.9915 43.9441ZM7.55319 30.2604C3.87501 29.6801 1.07927 27.3498 0.223118 24.1504C-0.0486985 23.1346 -0.0710041 21.3263 0.175829 20.3159C0.536253 18.8402 1.40644 17.5655 2.24124 17.29C2.94753 17.0568 3.87778 17.3745 4.34271 18.0075C4.7049 18.5006 4.69234 19.0866 4.29781 20.1022C3.85763 21.2354 3.77154 21.8366 3.91811 22.7541C4.21618 24.6196 5.5397 26.0567 7.4864 26.6285C8.26756 26.858 9.75906 26.8436 10.5448 26.5991C13.2991 25.7418 14.5279 22.7714 13.1833 20.2208C12.5225 18.9673 11.0227 18.0074 7.96074 16.8781C4.68801 15.6712 3.47079 15.0013 2.12582 13.6668C1.07407 12.6233 0.576858 11.7889 0.227256 10.4801C-0.0757813 9.3459 -0.0757451 7.35007 0.227323 6.21066C0.850166 3.86888 2.40022 1.97707 4.57745 0.901359C5.89383 0.250951 7.02889 -0.00231238 8.61694 1.58934e-05C11.3638 0.00363497 13.4184 0.823066 15.2057 2.62662C16.617 4.05085 17.2781 5.40535 17.4955 7.31839C17.7071 9.1804 17.0133 10.118 15.4952 10.0212C14.5153 9.95887 13.8927 9.37929 13.7798 8.42462C13.5792 6.728 13.2096 5.83626 12.3517 4.97829C10.6793 3.30592 7.79879 3.00952 5.79648 4.30361C3.74941 5.62675 3.2127 8.65398 4.68373 10.5805C5.45003 11.5841 6.74733 12.3236 9.81498 13.5055C12.1925 14.4215 13.0374 14.8159 14.0866 15.4998C15.6264 16.5035 16.6343 17.7218 17.1469 19.199C18.287 22.4844 17.2446 26.2839 14.615 28.4282C13.809 29.0855 12.3776 29.7973 11.3235 30.0653C10.3793 30.3052 8.46532 30.4042 7.55319 30.2604ZM27.2301 30.2495C24.3876 29.8419 21.6389 27.7782 20.4173 25.1343C19.8084 23.8165 19.608 22.8507 19.6167 21.2761C19.6257 19.6345 19.8259 18.744 20.5009 17.3438C21.3898 15.4995 22.8086 14.1014 24.7039 13.202C26.0628 12.5571 26.7917 12.3819 28.3809 12.3179C30.4408 12.235 32.0104 12.6011 33.5765 13.5296C34.3514 13.9891 35.601 15.1237 36.1385 15.8561C36.6924 16.6106 37.3147 17.9538 37.6028 19.0166C37.8671 19.9913 37.8695 20.0347 37.9069 24.3838C37.9406 28.3011 37.9264 28.8162 37.7732 29.2174C37.2304 30.6388 34.9596 30.7285 34.2595 29.3563C34.0808 29.0061 34.0623 28.6495 34.0223 24.7942C33.9861 21.3043 33.9505 20.5037 33.8072 19.9572C33.3736 18.3033 32.3586 16.9646 31.0499 16.3205C27.9016 14.7712 24.2531 16.6706 23.5756 20.2115C23.3905 21.1791 23.3915 21.5497 23.5817 22.4507C23.787 23.4245 24.2527 24.3293 24.9187 25.0487C26.2639 26.5017 27.7267 26.9528 29.9185 26.5908C30.9748 26.4163 31.3938 26.4977 31.8943 26.9751C32.9519 27.9837 32.5504 29.3827 31.0412 29.9474C29.9747 30.3464 28.6427 30.4521 27.2301 30.2495ZM68.3488 30.2567C65.1207 29.7832 62.4104 27.7734 61.0987 24.8807C60.1007 22.6795 60.1224 19.7886 61.1537 17.5563C62.28 15.1186 64.376 13.33 66.989 12.5766C68.0987 12.2567 70.6602 12.2342 71.8406 12.5339C75.7442 13.5252 78.2759 16.4865 78.3108 20.1019C78.3193 20.9348 78.2916 21.0724 78.0205 21.5673C77.8404 21.8961 77.5504 22.2312 77.2918 22.4091C76.5079 22.9484 76.0027 23.0128 72.5558 23.0128C69.5183 23.0128 69.4202 23.0068 68.9828 22.783C68.3812 22.4756 68.1396 22.1188 68.0866 21.4594C68.0511 21.0154 68.0859 20.8568 68.2822 20.5708C68.8107 19.8007 68.8088 19.8012 71.6519 19.7443C74.0566 19.6963 74.2154 19.6812 74.357 19.489C74.6672 19.068 74.2469 17.9728 73.4817 17.2075C72.5499 16.2757 71.1898 15.7589 69.6809 15.7634C68.094 15.7682 66.9922 16.2156 65.9166 17.2923C63.7073 19.5039 63.6623 22.9745 65.8144 25.1685C66.9133 26.2888 68.1485 26.7918 69.8 26.7918C71.4375 26.7918 72.0939 26.5691 74.6493 25.1467C76.8875 23.9009 78.6129 26.2076 76.7479 27.9521C74.8585 29.7194 71.315 30.6919 68.3488 30.2567Z" fill="#191818"/>
</svg>
