<svg width="53" height="44" viewBox="0 0 53 44" fill="none" xmlns="http://www.w3.org/2000/svg">
<path d="M30.644 23.7583C30.6023 23.7687 30.4353 23.7687 30.3623 23.7687H24.9783V25.0208H30.4562C30.4979 25.0208 30.8214 25.0208 30.884 25.0104C32.0004 24.906 32.5117 23.9774 32.5117 23.1636C32.5117 22.3289 31.9795 21.4315 30.9674 21.3376C30.7692 21.3168 30.6023 21.3168 30.5292 21.3168H26.9504C26.7939 21.3168 26.6165 21.3063 26.5539 21.2855C26.2722 21.2124 26.1678 20.962 26.1678 20.7533C26.1678 20.5655 26.2722 20.3151 26.5643 20.2316C26.6478 20.2108 26.7417 20.2003 26.9399 20.2003H32.1047V18.9691H26.8565C26.6373 18.9691 26.4704 18.9795 26.3348 19.0004C25.4374 19.1256 24.8114 19.8456 24.8114 20.7638C24.8114 21.515 25.2809 22.3915 26.3139 22.5375C26.5017 22.5584 26.7626 22.5584 26.8773 22.5584H30.3623C30.4249 22.5584 30.5814 22.5584 30.6127 22.5688C31.0092 22.621 31.1448 22.9132 31.1448 23.174C31.1448 23.4244 30.9883 23.6957 30.644 23.7583Z" fill="#191818"/>
<path d="M20.4399 23.7583C20.3982 23.7687 20.2312 23.7687 20.1686 23.7687H14.7742V25.0208H20.2521C20.2938 25.0208 20.6173 25.0208 20.6799 25.0104C21.7963 24.906 22.3076 23.9774 22.3076 23.1636C22.3076 22.3289 21.7754 21.4315 20.7633 21.3376C20.5651 21.3168 20.3982 21.3168 20.3251 21.3168H16.7463C16.5898 21.3168 16.4124 21.3063 16.3498 21.2855C16.0681 21.2124 15.9637 20.962 15.9637 20.7533C15.9637 20.5655 16.0681 20.3151 16.3602 20.2316C16.4437 20.2108 16.5376 20.2003 16.7358 20.2003H21.9006V18.9691H16.6524C16.4332 18.9691 16.2663 18.9795 16.1307 19.0004C15.2333 19.1256 14.6073 19.8456 14.6073 20.7638C14.6073 21.515 15.0768 22.3915 16.1098 22.5375C16.2976 22.5584 16.5585 22.5584 16.6732 22.5584H20.1582C20.2208 22.5584 20.3773 22.5584 20.4086 22.5688C20.8051 22.621 20.9407 22.9132 20.9407 23.174C20.9407 23.4244 20.7946 23.6957 20.4399 23.7583Z" fill="#191818"/>
<path d="M11.9676 18.9272H10.6112V25.052H11.9676V18.9272Z" fill="#191818"/>
<path d="M7.6168 25.052V18.9272H6.26038V23.4973L1.74247 18.9272H0V25.052H1.35642V20.461L5.90563 25.052H7.6168Z" fill="#191818"/>
<path d="M51.2405 18.9272V23.4973L46.7226 18.9272H44.9801V25.052H46.3365V20.461L50.8753 25.052H52.5865V18.9272H51.2405Z" fill="#191818"/>
<path d="M37.9177 18.9272L34.0989 25.052H35.7474L36.4257 23.9564H40.881L41.5592 25.052H43.1973L39.3785 18.9272H37.9177ZM40.1819 22.7983H37.1247L38.6585 20.3358L40.1819 22.7983Z" fill="#191818"/>
<path d="M7.54433 15.4527C10.278 7.47073 17.8114 2.10766 26.3046 2.10766C34.7979 2.10766 42.3416 7.47073 45.0649 15.4527L45.0858 15.5153H51.0644V14.7954L48.5812 14.5032C47.0474 14.3258 46.7239 13.6476 46.3065 12.7921L46.2022 12.5834C42.6129 4.9457 34.7979 0 26.3046 0C17.8009 0 9.99632 4.9457 6.40703 12.6042L6.30269 12.8129C5.88533 13.6685 5.56188 14.3467 4.02809 14.5241L1.5448 14.8162V15.5362H7.51303L7.54433 15.4527Z" fill="#191818"/>
<path d="M45.0856 28.4742L45.0647 28.5368C42.331 36.5188 34.7977 41.8715 26.3044 41.8715C17.8112 41.8715 10.2674 36.5084 7.54415 28.5264L7.52329 28.4638H1.55505V29.1838L4.03834 29.4759C5.57213 29.6533 5.89559 30.3315 6.31295 31.1871L6.41728 31.3958C10.0066 39.0543 17.8216 44 26.3149 44C34.8081 44 42.6232 39.0543 46.2125 31.4062L46.3168 31.1975C46.7342 30.3419 47.0576 29.6637 48.5914 29.4863L51.0747 29.1942V28.4742H45.0856Z" fill="#191818"/>
</svg>
